<svg width="320" height="125" viewBox="0 0 320 125" fill="none" xmlns="http://www.w3.org/2000/svg">
<g clip-path="url(#clip0_883_14918)">
<path d="M198.042 21L188.848 55.2037L209.341 47.6947L172.417 104L182.956 69.158L161.261 77.0738L198.042 21Z" fill="#EBFF3C"></path>
<path d="M36.2012 72.8124L41.5517 51.2239H32.738L35.0613 41.969H64.0498L61.7264 51.2239H52.8256L47.4752 72.8124H36.2012Z" fill="white"></path>
<path d="M66.6784 41.969H81.7643C87.8623 41.969 91.4126 45.4482 91.4126 50.9986C91.4126 56.5491 88.0367 60.385 83.3838 61.9681L89.2637 72.8062H76.7627L72.6393 62.9818H72.4213L69.9672 72.8062H59.0046L66.6784 41.9628V41.969ZM75.4111 51.0424L74.2712 55.5354H77.6908C79.4473 55.5354 80.4127 54.3464 80.4127 52.9823C80.4127 51.881 79.8397 51.0424 78.2638 51.0424H75.4111Z" fill="white"></path>
<path d="M98.4448 41.969H109.719L102.045 72.8124H90.771L98.4448 41.969Z" fill="white"></path>
<path d="M121.622 63.9517L118.551 66.7739L117.15 72.8124H105.876L113.55 41.969H124.823L122.282 51.6181L132.061 41.969H146.493L130.355 56.9058L139.567 72.8124H126.1L121.628 63.958L121.622 63.9517Z" fill="white"></path>
<path d="M32.7381 41.994C32.7381 41.994 32.6945 41.9628 32.6696 41.9502H17.2286C16.6431 41.9502 15.877 42.0191 15.5406 42.0879C10.0656 43.4833 7.11942 47.5633 7.11942 52.369C7.11942 55.3664 8.25927 57.7568 10.9563 59.3087C11.0871 59.39 11.2304 59.4776 11.3923 59.559L11.5729 59.634C11.9591 59.8218 12.3764 59.997 12.8249 60.1534L18.4619 62.2872C19.2965 62.7253 19.8945 62.9443 19.5706 63.4261C19.527 63.4887 19.446 63.5638 19.309 63.5638H2.50394L0 72.7936C0 72.7936 0.043601 72.8249 0.0685158 72.8375H17.2099C21.788 72.8375 24.5847 70.9539 25.1515 70.5347C27.6929 68.5573 29.0258 65.6475 29.0258 62.4187C29.0258 60.9544 28.7081 59.6653 28.079 58.5327C28.0603 58.4952 28.0417 58.4576 28.0167 58.4263C27.9918 58.3825 27.9607 58.3325 27.9358 58.2887C27.9109 58.2449 27.8797 58.1948 27.8486 58.151C27.8361 58.1385 27.8299 58.1197 27.8174 58.1072C26.5094 56.1173 24.211 55.0222 23.5819 54.7532L18.1442 52.5005C17.2348 52.125 16.8424 51.8684 17.0044 51.4617C17.1103 51.1926 17.6023 51.2239 17.7331 51.2239H30.2217L32.7256 41.994H32.7381Z" fill="white"></path>
<path d="M236.292 51.931L229.192 65.9854L228.226 51.931H219.718L210.941 66.1169L210.35 54.3902L199.954 70.347L199.717 82.7744H210.811L220.023 67.7063L220.901 82.7744H231.558L247.697 51.931H236.292Z" fill="white"></path>
<path d="M157.568 50.8234L156.87 53.6894H171.121L165.777 61.8367H154.808L154.104 64.6588H163.927L158.583 72.8124H140.819L148.492 41.969H178.808L173.002 50.8234H157.568Z" fill="white"></path>
<path d="M282.416 82.7744H258.161L265.835 51.931H277.109L271.628 73.8762H284.652L282.416 82.7744Z" fill="white"></path>
<path d="M292.986 51.931H305.132C313.379 51.931 320 56.6867 320 65.5036C320 75.6846 311.535 82.7744 300.305 82.7744H285.306L292.98 51.931H292.986ZM301.974 61.0983L298.773 73.92H300C304.914 73.92 308.639 71.5421 308.639 66.4297C308.639 63.301 306.795 61.0983 303.027 61.0983H301.974Z" fill="white"></path>
<path d="M250.369 51.8997H261.643L253.97 82.7431H242.696L250.369 51.8997Z" fill="white"></path>
</g>
<defs>
<clipPath id="clip0_883_14918">
<rect width="320" height="83" fill="white" transform="translate(0 21)"></rect>
</clipPath>
</defs>
</svg>