<?xml version="1.0"?>
<svg id="Layer_2" data-name="Layer 2" xmlns="http://www.w3.org/2000/svg" viewBox="0 0 1169.83 129.18">
  <defs>
    
  </defs>
  <g id="Layer_1-2" data-name="Layer 1">
    <g>
      <path class="cls-4" d="M104.2,37.77h33.57c-6.85-15.57-23.41-30.47-58.17-29.47-10.99.32-69.75,6.45-79.08,60.18-3.01,17.39,5.81,56.99,61.8,55.33,8.3-.24,47.05-1.49,60.91-28.57h-35.55c-7.63,15.07-21.78,17.34-28.47,16.93-20.66-1.22-24.9-17.78-19.38-42.98,9.83-44.93,36.44-46.84,46.64-46.21,11.91.72,15,6.01,17.74,14.79h0ZM257.02,63.6c-13.91,47.62-41.37,53.4-52.04,52.96-21.63-.93-30.62-18.06-22.81-44.91,13.94-47.58,41.42-53.37,52.06-52.94,21.63.93,30.65,18.06,22.79,44.9h0ZM292.1,59.73c7.22-33.96-15.34-51.48-58.78-50.97-21.35.29-75.19,6.57-88.01,66.79-7.25,33.96,15.32,51.47,58.76,50.95,21.41-.31,75.21-6.59,88.02-66.78h0ZM428.87,32.88c6.11-25.51-30.19-24.18-42.47-24.24-15.46-.06-36.87-.01-58.61,0l-2.37,7.07c8.99,1.69,7.18,6.76,3.32,17.9-10.2,29.43-15.44,42.38-23.35,62.31-7.91,19.94-10.11,26.24-10.11,26.24h32.92s26.88-76.43,33.96-92.15c7.07-15.74,7.34-15.74,18.58-15.66,12.69.07,18.8,8.65,14.19,18.99-4.27,9.65-11.6,23.66-43.33,33.8l-.71,5.28,22.18,49.76h39.25s-5.32-8.41-12.22-20.69c-9.02-16.03-11.67-22.79-16.87-34.57,18.58-5.47,40.7-13.22,45.65-34.05h0ZM528.05,74.33c.19.72-.43,1.11-1.21,1.11-13.17,0-19.02-.04-32.46-.04-.44,0-.94-.66-.6-1.21.8-1.39,18.62-26.15,26.86-36.79,0,0,2.67,19.04,7.41,36.94h0ZM539.88,122.82h33.77s-24.62-99.09-27.32-108.09c-2.68-9.05-28.32-8.56-39.78,4.49-4.86,5.53-76.89,103.61-76.89,103.61h31.47l27.13-36.72,41.89-.04,9.72,36.75ZM631.68,102.37c7.79-19.69,33.06-94.26,33.06-94.26h-46.38s-2.34,6.91-2.34,6.91c5.89,1.61,8.74,5.83,5.47,17.49-4.69,16.71-34.01,90.43-34.01,90.43,0,.01,93.54-.03,94.51-.09-.06.06,6.82-20.48,6.82-20.48h-57.13Z"></path>
      <g>
        <path class="cls-2" d="M696.62,84.39c10.65-8.24,27.52-19.32,46.37-15.94,14.26,2.55,21.09,3.3,31.68-.49-10.17-2.96-15-7.85-20.51-15.44,9.42-3.18,12.51-3.68,24.78-11.24-2.11-1.77-9.84-8.1-23.84-8.22-20.19-.13-31.4,6.85-47.02,16.9l-11.46,34.43Z"></path>
        <path class="cls-5" d="M807.82,12.82c-5.02,4.92-13.82,13.13-33.02,5.47-19.24-7.71-34.63,2.08-38.69,4.21l-10.68,31.72c11.82-7.18,25.02-13.48,39.18-8.07,14.13,5.41,20.67,4.74,32.81-1.86l10.4-31.47Z"></path>
        <path class="cls-3" d="M711.75,39.12c15.62-10.03,26.83-16.97,47.03-16.87,17.36.12,28.42-1.81,43.38-22.25-14.79,7.75-23.84,8.97-39.7,4.11-15.84-4.8-27.54-2-40.59,4.86l-10.12,30.15Z"></path>
      </g>
      <path class="cls-1" d="M869,18.68l-2.46,7.24c6.19,1.69,9.16,6.13,5.73,18.37-.2.72-.44,1.52-.73,2.41,0,0-.06.16-.16.45-.17.52-.5,1.46-.93,2.76-.07.19-.13.39-.2.59,0,0,0,0,0,0-8.43,23.47-33.68,78.69-33.68,78.69l31.93-.04h.13c8.19-20.68,49.07-120.52,49.07-120.52l-48.7,10.07ZM864.52,121.52c-7-2.55,30.35-103.97,30.35-103.97l13.05-2.7c-9.04,22.09-34.79,85.13-43.4,106.66ZM1032.2,53.06h-7.6c.9-9.05-.36-17.33-3.93-23.73-4.41-7.9-12.08-12.28-22.18-12.66-.42-.02-.84-.02-1.26-.02-17.36,0-33.91,13.89-49.17,41.27-10.89,19.54-13.87,44.28-6.79,56.34,2.91,4.96,7.36,7.37,13.61,7.37,13.79,0,41.35-7.83,58.7-36.82h8.65c-.33.62-.66,1.24-1.01,1.86-18.17,32.11-48.44,42.48-66.34,42.48-.41,0-.79-.04-1.19-.05.07,0,.14.02.21.03-.2,0-.39.02-.57.02-36.68.89-54.31-16.8-45.53-51.54,13.61-53.92,50.44-65.92,71.51-68.39,3.01-.35,5.71-.51,7.95-.57,4.83-.12,9.33.08,13.48.6.14.02.26.05.39.06,2.94.27,5.67.83,8.2,1.64.17.05.36.08.54.13-.07-.01-.13-.01-.2-.02,16.43,5.48,24.27,22.01,22.55,41.99ZM1158.6,86.67c-18.17,32.11-48.44,42.48-66.34,42.48-.41,0-.79-.04-1.19-.05.07,0,.14.02.21.03-.2,0-.39.02-.57.02-34.05.83-51.67-14.37-47-44.35h31.91c-2.05,11.77-1.26,22.73,2.78,29.61,2.97,5.06,7.51,7.52,13.88,7.52,14.15,0,42.72-8.18,60.06-38.82.41-.72.77-1.44,1.16-2.16,2.47-1.61,4.4-3.84,5.51-6.54,1.08-2.65,1.13-4.92.18-6.77.08-.24.15-.49.22-.73,1.51-.02,2.77-.96,3.31-2.51.84-2.62.55-5.11-.83-6.99-.04-.05-.09-.1-.12-.15,1.8-10.73.73-20.66-3.42-28.09-4.47-8-12.23-12.44-22.44-12.82-.43-.02-.85-.02-1.27-.02-16.46,0-32.16,12.35-46.73,36.73h-33.67c16.95-33.24,45.06-41.8,62.45-43.84,3.01-.35,5.71-.51,7.95-.57,4.83-.12,9.33.08,13.48.6.14.02.26.05.39.06,2.94.27,5.67.83,8.2,1.64.17.05.36.08.54.13-.07-.01-.13-.01-.2-.02,25.15,8.39,30.19,42.67,11.56,75.6Z"></path>
      <path class="cls-4" d="M1043.55,58l-16.4,13.2c-.36.3-.62.61-.8,1.05l-3.21,7.85c-.17.41-.51.68-.95.68h-5.72c-.41,0-.57-.27-.4-.68l3.21-7.85c.18-.44.17-.75.06-1.05l-5.59-13.2c-.18-.47.21-.91.78-.91h6.56c.44,0,.69.14.82.47l3.44,7.72c.11.24.34.24.64,0l9.76-7.72c.41-.34.8-.47,1.21-.47h6.56c.58,0,.6.44.03.91ZM1062.42,75.46h-16.48c-.2,0-.28-.13-.2-.34l1.52-3.72c.08-.2.27-.34.48-.34h15.43c.44,0,.79-.27.95-.68l1.29-3.15c.18-.44.04-.68-.4-.68h-15.43c-.2,0-.28-.14-.2-.34l1.46-3.55c.08-.2.27-.34.48-.34h16.48c.44,0,.79-.27.96-.68l1.59-3.89c.18-.44.04-.68-.4-.68h-23.07c-.41,0-.77.24-.95.68l-9.14,22.34c-.17.41,0,.68.4.68h23.07c.44,0,.79-.27.95-.68l1.62-3.96c.18-.44.04-.68-.4-.68ZM1092.68,58l2.16,21.76c.05.54-.31,1.02-1.02,1.02h-5.85c-.54,0-.7-.27-.76-.78l-.37-3.38c-.02-.37-.17-.58-.57-.58h-11.2c-.4,0-.73.2-1.08.58l-3.11,3.38c-.48.51-.86.78-1.4.78h-5.82c-.71,0-.69-.47-.19-1.02l19.97-21.76c.55-.61,1.05-.91,1.69-.91h6.63c.64,0,.86.31.94.91ZM1086.53,70.56l-.65-6.6c-.03-.27-.33-.27-.58,0l-6.05,6.6c-.2.24-.11.44.16.44h6.6c.27,0,.52-.2.52-.44ZM1122.32,72.72l1.96,7.28c.12.44-.22.78-.69.78h-6.29c-.37,0-.61-.17-.71-.58l-1.86-6.29c-.08-.3-.27-.41-.68-.41h-6.83c-.2,0-.39.14-.48.34l-2.56,6.26c-.17.41-.55.68-.95.68h-5.72c-.41,0-.57-.27-.4-.68l9.14-22.34c.17-.41.55-.68.95-.68h16.65c5.89,0,8.4,2.78,6.2,8.16-1.4,3.42-3.99,5.69-7.27,6.77-.39.13-.55.44-.46.71ZM1122.98,65.34l.07-.17c.76-1.86,0-2.91-2.12-2.91h-9.1c-.2,0-.39.13-.48.34l-2.19,5.35c-.08.2,0,.34.2.34h9.1c2.13,0,3.75-1.05,4.52-2.94ZM1153.84,56.75h-7.95c-5.45,0-10.39,2.64-12.3,7.31-1.73,4.23.05,6.56,4.66,6.87l9.64.34c1.83.17,2.75.71,2.1,2.3-.67,1.62-2.13,2.4-4.4,2.4h-6.7c-2.3,0-2.93-.95-2.68-2.37.07-.51-.1-.68-.57-.68h-5.41c-.44,0-.79.27-.95.74-1.35,4.2.88,7.45,6.8,7.45h7.78c5.72,0,10.75-2.88,12.72-7.68,1.86-4.54-.27-6.77-5.1-7.04l-9.4-.34c-1.87-.14-2.49-.78-1.92-2.17.58-1.42,1.95-2.2,4.15-2.2h6.84c1.83,0,2.46.85,2.46,1.93,0,.51.28.71.76.71h4.97c.37,0,.71-.17.9-.71,1.11-3.45-.3-6.87-6.39-6.87Z"></path>
    </g>
  </g>
</svg>