<svg width="85" height="34" viewBox="0 0 85 34" fill="none" xmlns="http://www.w3.org/2000/svg">
<path d="M77.847 26.989C75.8856 26.9862 73.9631 26.4422 72.291 25.417C74.4223 22.0429 75.2092 17.9916 74.496 14.065C73.7772 10.1333 71.6138 6.61258 68.431 4.19498C65.2354 1.76564 61.2532 0.606041 57.253 0.939984C53.2552 1.26967 49.522 3.0709 46.776 5.99498C44.0427 8.90652 42.4999 12.7368 42.452 16.73C42.4081 20.7229 43.8629 24.5872 46.529 27.56C49.2074 30.5453 52.8983 32.4303 56.887 32.85C60.879 33.2742 64.8867 32.2052 68.137 29.849C70.9632 31.8906 74.3605 32.9903 77.847 32.992C79.957 33 82.047 32.597 84 31.807V25.005C82.2146 26.3085 80.0576 27.004 77.847 26.989ZM67.747 19.955C65.3216 17.3631 62.127 15.62 58.635 14.983V21.114C59.335 21.324 60.013 21.601 60.66 21.939C61.987 22.6575 63.1463 23.6498 64.061 24.85C62.4728 25.9436 60.5893 26.5278 58.661 26.525C56.7694 26.528 54.9189 25.9732 53.341 24.93C51.7685 23.891 50.5402 22.4083 49.812 20.67C49.0867 18.9361 48.8962 17.0249 49.265 15.182C49.6348 13.3362 50.5463 11.6425 51.883 10.317C53.2252 8.98657 54.9306 8.08239 56.785 7.71798C58.6418 7.3523 60.5651 7.54151 62.315 8.26198C64.0606 8.97953 65.5544 10.1981 66.608 11.764C67.6576 13.3247 68.2172 15.1632 68.215 17.044C68.2233 18.0362 68.0654 19.0229 67.748 19.963L67.747 19.955ZM12.865 17.773L6.97 2.10798H1V31.884C3.06953 30.8216 5.21272 29.9092 7.413 29.154V16.864L11.593 27.839C12.5305 27.5684 13.4741 27.3193 14.423 27.092L18.317 16.889V26.165C19.9 25.83 24.21 25.108 24.729 25.031V2.09998H18.317L12.865 17.772V17.773ZM37.243 2.51198C36.332 3.06598 35.836 4.10198 35.522 5.08898C35.1188 6.289 34.8302 7.52452 34.66 8.77898C34.66 8.80698 34.631 9.02098 34.543 9.02098C34.455 9.02098 34.465 8.86598 34.465 8.86598V2.11298H27.948V24.575C30.1125 24.3043 32.2863 24.1152 34.465 24.008V12.414C34.465 12.018 34.491 11.622 34.543 11.229C34.579 10.889 34.713 10.566 34.933 10.301C35.047 10.171 35.189 10.065 35.348 9.99198C35.768 9.78698 36.23 9.68098 36.698 9.68198C37.477 9.65698 39.995 9.63198 39.995 9.63198V2.10698H38.8C38.255 2.10863 37.7191 2.24757 37.242 2.51098L37.243 2.51198Z" fill="#0A2ECB"></path>
</svg>